Coordinates
version=1
nRows=20
nColumns=34
inDegrees=yes

Units are S.I. units (second, meters, Newtons, ...)
Angles are in degrees.

endheader
time	pelvis_tilt	pelvis_list	pelvis_rotation	pelvis_tx	pelvis_ty	pelvis_tz	hip_flexion_r	hip_adduction_r	hip_rotation_r	knee_angle_r	ankle_angle_r	subtalar_angle_r	mtp_angle_r	hip_flexion_l	hip_adduction_l	hip_rotation_l	knee_angle_l	socket_flexion	socket_adduction	socket_rotation	socket_tx	socket_ty	socket_tz	pros_ankle_rx	pros_ankle_ry	pros_ankle_rz	pros_ankle_tx	pros_ankle_ty	pros_ankle_tz	foot_flex	lumbar_extension	lumbar_bending	lumbar_rotation
      0.30000000	      0.16781977	     -5.11350950	     -4.59702164	     -0.33921325	      1.04777730	      0.32531093	      9.85389390	      1.22028160	     -5.56996108	    -59.14571308	      3.74268291	     13.71122771	     20.21135745	      8.10106578	     -4.13275308	    -12.60205752	    -19.91817386	     -1.32762489	     -0.29182363	     10.85449086	      0.00000000	     -0.01742936	      0.00000000	      0.00000000	      0.00000000	      0.00000000	      0.00000000	      0.00000000	      0.00000000	      5.00361553	     -9.46121368	     -3.52995219	    -22.19295876
      0.30416667	      0.21151562	     -5.17549897	     -4.50741903	     -0.33381666	      1.04854834	      0.32507642	     10.30377357	      1.29752343	     -5.67686604	    -58.83365105	      4.42620496	     13.48883990	     20.14894750	      7.59233504	     -4.13074804	    -12.62803948	    -19.64780256	     -1.31949512	     -0.30025788	     10.88439158	      0.00000000	     -0.01723188	      0.00000000	      0.00000000	      0.00000000	      0.00000000	      0.00000000	      0.00000000	      0.00000000	      5.11768219	     -9.50450570	     -3.41587824	    -22.28679374
      0.30833333	      0.26802759	     -5.25570270	     -4.42255263	     -0.32847139	      1.04932284	      0.32487036	     10.74249466	      1.41330064	     -5.75844564	    -58.51575234	      5.21964637	     13.23321396	     20.06335982	      7.04525948	     -4.15102996	    -12.62600760	    -19.30609229	     -1.25106836	     -0.28908030	     10.96347613	      0.00000000	     -0.01710677	      0.00000000	      0.00000000	      0.00000000	      0.00000000	      0.00000000	      0.00000000	      0.00000000	      5.24068383	     -9.52993164	     -3.26732453	    -22.40597934
      0.31250000	      0.29587026	     -5.29789507	     -4.37480292	     -0.32324693	      1.05007677	      0.32468466	     11.21638275	      1.46637249	     -5.85089324	    -58.11930312	      5.61024215	     13.11074826	     20.01564098	      6.60401837	     -4.13779032	    -12.65841239	    -19.15499722	     -1.30186598	     -0.30643389	     10.95237108	      0.00000000	     -0.01675649	      0.00000000	      0.00000000	      0.00000000	      0.00000000	      0.00000000	      0.00000000	      0.00000000	      5.33860704	     -9.59059173	     -3.19336108	    -22.45766273
      0.31666667	      0.36382474	     -5.43472285	     -4.29011233	     -0.31794081	      1.05077135	      0.32451102	     11.61826202	      1.66027014	     -5.92795481	    -57.73360146	      6.53451052	     12.81969353	     19.89239949	      6.01299756	     -4.22178893	    -12.65984745	    -18.70792819	     -1.15576694	     -0.27941073	     11.07250923	      0.00000000	     -0.01684176	      0.00000000	      0.00000000	      0.00000000	      0.00000000	      0.00000000	      0.00000000	      0.00000000	      5.46578383	     -9.60146196	     -2.95993116	    -22.60210869
      0.32083333	      0.74875624	     -5.42748425	     -4.38179670	     -0.31250688	      1.05231070	      0.32449258	     11.64138366	      1.69748438	     -5.79002213	    -57.18996965	      7.01860027	     12.52564064	     18.54401566	      4.60276892	     -3.99623618	    -12.62090333	    -16.91898575	     -0.21468442	     -0.03040309	     10.80262054	      0.00000000	     -0.01706111	      0.00000000	      0.00000000	      0.00000000	      0.00000000	      0.00000000	      0.00000000	      0.00000000	      5.57835832	    -10.05174288	     -2.97041145	    -22.58829680
      0.32500000	      0.74952986	     -5.45379806	     -4.30495677	     -0.30739799	      1.05289755	      0.32428200	     12.12562904	      1.73748360	     -5.90073789	    -56.71350541	      7.38426727	     12.49127618	     18.53362496	      4.25984229	     -3.98049088	    -12.62963562	    -16.89235348	     -0.29796734	     -0.07757209	     10.80195282	      0.00000000	     -0.01661555	      0.00000000	      0.00000000	      0.00000000	      0.00000000	      0.00000000	      0.00000000	      0.00000000	      5.68653290	    -10.09915250	     -2.90481429	    -22.60619026
      0.32916667	      0.75820454	     -5.62614383	     -4.21586376	     -0.30215778	      1.05341113	      0.32405368	     12.56005515	      1.96619592	     -6.01942849	    -56.20467665	      8.20003542	     12.41462116	     18.42286613	      3.79936097	     -4.11452394	    -12.62100639	    -16.62946066	     -0.26775613	     -0.06310617	     10.90638668	      0.00000000	     -0.01663736	      0.00000000	      0.00000000	      0.00000000	      0.00000000	      0.00000000	      0.00000000	      0.00000000	      5.80103781	    -10.08023801	     -2.60418590	    -22.75896925
      0.33333333	      0.75904293	     -5.65959845	     -4.14838086	     -0.29710889	      1.05392856	      0.32388839	     13.02555687	      2.02820261	     -6.10704631	    -55.65975195	      8.46289349	     12.36719896	     18.38734944	      3.45631659	     -4.10922729	    -12.65153908	    -16.58741905	     -0.32220949	     -0.11125819	     10.90158806	      0.00000000	     -0.01629282	      0.00000000	      0.00000000	      0.00000000	      0.00000000	      0.00000000	      0.00000000	      0.00000000	      5.91046814	    -10.13774357	     -2.56153352	    -22.78492773
      0.33750000	      0.76473759	     -5.80129182	     -4.05925621	     -0.29190809	      1.05444992	      0.32370946	     13.43397294	      2.23811431	     -6.20945508	    -55.04099195	      9.01656381	     12.26035218	     18.31395330	      3.03475900	     -4.21860287	    -12.65908523	    -16.39457914	     -0.31242373	     -0.12932491	     11.01162752	      0.00000000	     -0.01615034	      0.00000000	      0.00000000	      0.00000000	      0.00000000	      0.00000000	      0.00000000	      0.00000000	      6.05173341	    -10.13879528	     -2.36291144	    -22.87841873
      0.34166667	      0.79069377	     -5.80674627	     -4.05525044	     -0.28702634	      1.05477315	      0.32364095	     13.94354759	      2.26074598	     -6.28399510	    -54.58556093	      9.13959010	     12.23377107	     18.29783074	      2.67026002	     -4.18220388	    -12.66497173	    -16.39366579	     -0.44239746	     -0.17015812	     10.99525984	      0.00000000	     -0.01594342	      0.00000000	      0.00000000	      0.00000000	      0.00000000	      0.00000000	      0.00000000	      0.00000000	      6.11771259	    -10.20385597	     -2.33451081	    -22.89485793
      0.34583333	      0.82406623	     -6.11248527	     -3.93861691	     -0.28158483	      1.05545533	      0.32351844	     14.16843635	      2.71143945	     -6.33591112	    -53.70245001	      9.86891723	     12.04302682	     18.03020943	      2.10774570	     -4.48034241	    -12.78429779	    -15.92342818	     -0.23099538	     -0.10955750	     11.17288076	      0.00000000	     -0.01602704	      0.00000000	      0.00000000	      0.00000000	      0.00000000	      0.00000000	      0.00000000	      0.00000000	      6.26149043	    -10.23521232	     -1.83976707	    -23.11947711
      0.35000000	      0.83230066	     -6.12754727	     -3.89169994	     -0.27663304	      1.05585624	      0.32343954	     14.60406022	      2.77432891	     -6.39357758	    -53.05484088	     10.04026018	     12.00359979	     17.96372082	      1.76825399	     -4.45856695	    -12.82197795	    -15.88396444	     -0.27518695	     -0.16569407	     11.16006429	      0.00000000	     -0.01568980	      0.00000000	      0.00000000	      0.00000000	      0.00000000	      0.00000000	      0.00000000	      0.00000000	      6.36855765	    -10.32660544	     -1.82774774	    -23.13526219
      0.35416667	      0.85375886	     -6.23739400	     -3.81163198	     -0.27154732	      1.05627580	      0.32333924	     14.96504037	      2.96939784	     -6.44576648	    -52.31171905	     10.36077185	     11.92881221	     17.84246371	      1.35238922	     -4.54421561	    -12.83252408	    -15.71622386	     -0.27597121	     -0.18791092	     11.25073930	      0.00000000	     -0.01548932	      0.00000000	      0.00000000	      0.00000000	      0.00000000	      0.00000000	      0.00000000	      0.00000000	      6.51341534	    -10.37518201	     -1.70544863	    -23.19969253
      0.35833333	      0.88469074	     -6.37991739	     -3.73814282	     -0.26641362	      1.05668197	      0.32323422	     15.28018178	      3.20327153	     -6.49423019	    -51.50893179	     10.68212919	     11.83972213	     17.67819943	      0.90526975	     -4.66220367	    -12.87421730	    -15.50808172	     -0.24108230	     -0.19351570	     11.34080559	      0.00000000	     -0.01539307	      0.00000000	      0.00000000	      0.00000000	      0.00000000	      0.00000000	      0.00000000	      0.00000000	      6.64451392	    -10.43909026	     -1.50843881	    -23.29428831
      0.36250000	      1.45124621	     -6.57654456	     -3.82303372	     -0.26102043	      1.05812519	      0.32345978	     14.92395955	      3.54628606	     -6.33255479	    -50.57686848	     11.10682901	     11.71231481	     14.87171333	     -0.61846247	     -4.71735759	    -13.19660374	    -14.00885374	      0.56479116	      0.00402602	     11.39996390	      0.00000000	     -0.01559921	      0.00000000	      0.00000000	      0.00000000	      0.00000000	      0.00000000	      0.00000000	      0.00000000	      6.75750907	    -11.16091780	     -1.24147773	    -23.21556274
      0.36666667	      1.42653015	     -6.62768525	     -3.72088851	     -0.25597554	      1.05838452	      0.32340652	     15.30961887	      3.68575680	     -6.39514057	    -49.76926666	     11.37516118	     11.65919162	     14.81168878	     -0.91720273	     -4.75488951	    -13.15101569	    -13.97239330	      0.50454647	     -0.03132675	     11.43992840	      0.00000000	     -0.01524168	      0.00000000	      0.00000000	      0.00000000	      0.00000000	      0.00000000	      0.00000000	      0.00000000	      6.90040609	    -11.16214728	     -1.18290456	    -23.29639334
      0.37083333	      1.43948509	     -6.81433595	     -3.61610021	     -0.25082188	      1.05865459	      0.32333256	     15.59237000	      3.97814245	     -6.47414011	    -48.86170336	     11.59181935	     11.51243891	     14.60157570	     -1.32503636	     -4.93742966	    -13.16278592	    -13.80668137	      0.52500163	     -0.01466354	     11.51845093	      0.00000000	     -0.01522635	      0.00000000	      0.00000000	      0.00000000	      0.00000000	      0.00000000	      0.00000000	      0.00000000	      7.01500627	    -11.21109206	     -0.85216534	    -23.51151900
      0.37500000	      1.42097660	     -6.80148219	     -3.55449818	     -0.24591617	      1.05880272	      0.32328630	     15.99187063	      4.03479815	     -6.50894600	    -48.05469193	     11.74422545	     11.48344823	     14.55052272	     -1.60722490	     -4.89447415	    -13.17770005	    -13.80572917	      0.47139436	     -0.08097897	     11.51817925	      0.00000000	     -0.01487538	      0.00000000	      0.00000000	      0.00000000	      0.00000000	      0.00000000	      0.00000000	      0.00000000	      7.14401219	    -11.29541461	     -0.87843845	    -23.53290157
      0.37916667	      1.41189199	     -6.84241283	     -3.46166184	     -0.24088548	      1.05896009	      0.32331303	     16.31986807	      4.18105611	     -6.53797092	    -47.15180694	     11.93648769	     11.43444759	     14.47427393	     -1.92775006	     -4.92577563	    -13.17729793	    -13.75131432	      0.43789645	     -0.11242456	     11.56941729	      0.00000000	     -0.01458479	      0.00000000	      0.00000000	      0.00000000	      0.00000000	      0.00000000	      0.00000000	      0.00000000	      7.29325860	    -11.34029768	     -0.83665002	    -23.59714288
